<?xml version="1.0" encoding="UTF-8"?>
<svg id="Layer_2" data-name="Layer 2" xmlns="http://www.w3.org/2000/svg" viewBox="0 0 2776.7 1060.17">
  <defs>
    <style>
      .cls-1 {
        fill: #fff;
      }

      .cls-2 {
        fill: #4e4e50;
      }

      .cls-3 {
        fill: #ffd200;
        fill-rule: evenodd;
      }
    </style>
  </defs>
  <g id="Layer_1-2" data-name="Layer 1">
    <g>
      <g>
        <g>
          <g>
            <path class="cls-2" d="M368.44,794.71v56.51c0,1.63-.72,2.23-2.67,2.23h-4.1c-2.06,0-2.67-.6-2.67-2.23v-31.01c0-4.8.62-10.13,1.85-16.14h-.51c-2.56,5.75-5.13,9.88-8.21,14.43l-13.04,19.41c-.83,1.2-1.54,1.63-3.19,1.63h-2.56c-1.65,0-2.26-.34-3.18-1.63l-13.24-19.58c-3.18-4.55-5.24-8.25-7.7-14.26h-.61c1.23,6.09,1.64,11.08,1.64,16.14v31.01c0,1.63-.62,2.23-2.67,2.23h-3.9c-1.95,0-2.67-.6-2.67-2.23v-56.51c0-1.63.72-2.23,2.67-2.23h3.59c2.26,0,2.88.34,3.8,1.71l23.61,35.14,23.51-35.05c.92-1.46,1.54-1.8,3.69-1.8h3.9c1.95,0,2.67.6,2.67,2.23Z"/>
            <path class="cls-2" d="M466.22,853.46h-4.01c-3.39,0-4.31-.43-4.92-1.97l-6.37-14h-30.38l-6.36,14c-.72,1.54-1.65,1.97-4.93,1.97h-3.59c-2.06,0-2.47-.77-1.85-2.23l26.69-57.03c.61-1.54,1.44-1.88,3.39-1.88h4.1c1.95,0,2.77.34,3.39,1.8l26.69,57.12c.61,1.46.2,2.23-1.85,2.23ZM436.03,800.04h-.62c-.1.17-.1,4.04-1.74,7.99l-10.37,22.67h24.84l-10.26-22.58c-1.65-4.04-1.85-7.9-1.85-8.07Z"/>
            <path class="cls-2" d="M557.21,810.77c0,9.27-5.65,15.29-15.08,17.09,2.26,1.03,3.69,2.66,5.13,4.8l11.39,18.47c.83,1.29.62,2.32-1.44,2.32h-4.51c-3.39,0-4.42-.34-5.34-1.97l-9.34-15.72c-2.97-5.07-5.95-6.79-13.55-6.79h-10.98v22.24c0,1.63-.72,2.23-2.78,2.23h-4.51c-1.95,0-2.67-.6-2.67-2.23v-56.51c0-1.63.72-2.23,2.67-2.23h28.85c13.75,0,22.17,6.7,22.17,18.29ZM534.12,800.21h-20.63v21.04h20.63c8.1,0,12.73-3.78,12.73-10.48s-4.63-10.56-12.73-10.56Z"/>
            <path class="cls-2" d="M648.93,853.46h-4.51c-3.28,0-4.42-.34-5.34-1.97l-10.88-18.38c-3.08-5.07-5.95-6.79-13.65-6.79h-8.01v24.91c0,1.63-.72,2.23-2.77,2.23h-4.52c-1.95,0-2.67-.6-2.67-2.23v-56.51c0-1.63.72-2.23,2.67-2.23h4.52c2.05,0,2.77.6,2.77,2.23v24.04h9.03l21.87-24.39c1.53-1.63,2.26-1.88,5.44-1.88h5.03c1.85,0,2.36,1.12,1.34,2.15l-23.72,25.77c5.34,1.55,8.83,4.73,11.81,9.71l13.04,21.04c.82,1.29.62,2.32-1.44,2.32Z"/>
            <path class="cls-2" d="M733.16,794.71v3.26c0,1.63-.61,2.23-2.67,2.23h-33.97v18.47h29.25c2.06,0,2.67.6,2.67,2.32v3.18c0,1.71-.62,2.23-2.67,2.23h-29.25v19.32h35.21c2.05,0,2.67.6,2.67,2.23v3.26c0,1.63-.62,2.23-2.67,2.23h-42.5c-1.95,0-2.67-.6-2.67-2.23v-56.51c0-1.63.72-2.23,2.67-2.23h41.27c2.06,0,2.67.6,2.67,2.23Z"/>
            <path class="cls-2" d="M820.16,794.71v3.26c0,1.63-.72,2.23-2.67,2.23h-19.4v51.02c0,1.63-.62,2.23-2.67,2.23h-4.52c-2.05,0-2.67-.6-2.67-2.23v-51.02h-19.4c-2.05,0-2.67-.6-2.67-2.23v-3.26c0-1.63.62-2.23,2.67-2.23h48.66c1.94,0,2.67.6,2.67,2.23Z"/>
            <path class="cls-2" d="M858.5,792.48h4.51c2.06,0,2.78.6,2.78,2.23v56.51c0,1.63-.72,2.23-2.78,2.23h-4.51c-1.95,0-2.67-.6-2.67-2.23v-56.51c0-1.63.72-2.23,2.67-2.23Z"/>
            <path class="cls-2" d="M963.6,794.71v56.51c0,1.63-.72,2.23-2.67,2.23h-4.51c-1.33,0-2.06-.26-2.77-1.12l-29.26-35.64c-4.21-5.33-7.28-12.03-8.31-13.23h-.51c0,1.63,1.74,8.85,1.74,15.98v31.78c0,1.63-.72,2.23-2.77,2.23h-4.21c-1.95,0-2.67-.6-2.67-2.23v-56.51c0-1.63.72-2.23,2.67-2.23h4.51c1.44,0,2.16.42,2.67,1.12l28.84,35.04c4.72,5.85,7.6,12.28,8.83,13.74h.51c0-1.88-1.64-8.93-1.64-16.57v-31.09c0-1.63.62-2.23,2.67-2.23h4.21c1.95,0,2.67.6,2.67,2.23Z"/>
            <path class="cls-2" d="M1060.75,823.32v10.99c0,12.02-10.16,20.44-28.74,20.44s-28.74-8.42-28.74-21.99v-19.58c0-13.57,10.17-21.99,28.74-21.99,15.4,0,23.92,5.15,27.61,14.6.62,1.63.21,2.32-1.74,2.92l-4.21,1.21c-1.95.6-2.77.25-3.49-1.38-2.56-6.44-7.9-9.62-18.17-9.62-12.32,0-18.79,5.15-18.79,14.17v19.67c0,9.02,6.67,14.26,18.79,14.26s18.89-5.24,18.89-12.71v-5.59h-17.76c-2.06,0-2.67-.51-2.67-2.23v-3.26c0-1.63.62-2.23,2.67-2.23h24.84c2.05,0,2.77.6,2.77,2.32Z"/>
            <path class="cls-2" d="M1170.51,791.19c10.58,0,18.58,6.61,18.58,14.69s-4.93,12.02-15.09,15.89l-1.03.43,15.81,13.14,6.78-5.5c1.03-.95,2.15-.95,3.28,0l3.08,2.66c.92.86,1.03,1.46-.2,2.41l-6.98,5.76,12.72,10.73c1.34,1.29,1.13,2.06-1.12,2.06h-5.75c-1.74,0-2.57-.26-3.69-1.29l-8.11-6.7c-9.85,7.64-15.5,9.27-23.1,9.27-12.11,0-21.04-7.3-21.04-17.52,0-8.94,6.67-13.74,14.68-17.09-4.42-3.87-8.01-8.25-8.01-13.74,0-7.9,6.88-15.2,19.2-15.2ZM1153.98,837.4c0,5.75,5.34,10.05,12.22,10.05,5.85,0,9.96-2.23,16.63-7.39l-17.56-14.6c-7.49,2.83-11.29,6.35-11.29,11.94ZM1170.51,797.98c-6.57,0-10.47,4.04-10.47,8.5,0,4.04,2.67,6.79,7.08,10.48l3.08-1.29c6.16-2.41,10.26-4.38,10.26-9.71,0-4.29-4.21-7.99-9.96-7.99Z"/>
            <path class="cls-2" d="M1345.05,853.46h-4.01c-3.39,0-4.31-.43-4.92-1.97l-6.37-14h-30.38l-6.36,14c-.72,1.54-1.65,1.97-4.93,1.97h-3.59c-2.06,0-2.47-.77-1.85-2.23l26.69-57.03c.61-1.54,1.44-1.88,3.39-1.88h4.1c1.95,0,2.77.34,3.39,1.8l26.69,57.12c.61,1.46.2,2.23-1.85,2.23ZM1314.86,800.04h-.62c-.1.17-.1,4.04-1.74,7.99l-10.37,22.67h24.84l-10.26-22.58c-1.65-4.04-1.85-7.9-1.85-8.07Z"/>
            <path class="cls-2" d="M1437.17,815.15v15.63c0,14-10.67,22.67-29.77,22.67h-22.38c-1.95,0-2.67-.6-2.67-2.23v-56.51c0-1.63.72-2.23,2.67-2.23h22.38c19.1,0,29.77,8.67,29.77,22.67ZM1407.4,800.21h-15.08v45.52h15.08c12.73,0,19.81-5.41,19.81-14.86v-15.8c0-9.45-6.98-14.86-19.81-14.86Z"/>
            <path class="cls-2" d="M1530.54,794.71l-25.67,56.86c-.61,1.55-1.43,1.89-3.28,1.89h-4.22c-1.85,0-2.77-.34-3.38-1.8l-25.67-56.95c-.61-1.46-.1-2.23,1.85-2.23h4.01c3.28,0,4.21.42,4.83,1.97l17.86,41.23c1.33,3.35,2.26,7.39,2.56,7.9h.41c.31-.51,1.13-4.47,2.57-7.81l17.65-41.32c.62-1.55,1.54-1.97,4.93-1.97h3.8c1.94,0,2.46.77,1.74,2.23Z"/>
            <path class="cls-2" d="M1612.61,794.71v3.26c0,1.63-.62,2.23-2.67,2.23h-33.97v18.47h29.25c2.06,0,2.67.6,2.67,2.32v3.18c0,1.71-.62,2.23-2.67,2.23h-29.25v19.32h35.21c2.05,0,2.67.6,2.67,2.23v3.26c0,1.63-.62,2.23-2.67,2.23h-42.5c-1.95,0-2.67-.6-2.67-2.23v-56.51c0-1.63.72-2.23,2.67-2.23h41.27c2.06,0,2.67.6,2.67,2.23Z"/>
            <path class="cls-2" d="M1705.46,810.77c0,9.27-5.65,15.29-15.08,17.09,2.26,1.03,3.69,2.66,5.13,4.8l11.39,18.47c.83,1.29.62,2.32-1.44,2.32h-4.51c-3.39,0-4.42-.34-5.34-1.97l-9.34-15.72c-2.97-5.07-5.95-6.79-13.55-6.79h-10.98v22.24c0,1.63-.72,2.23-2.78,2.23h-4.51c-1.95,0-2.67-.6-2.67-2.23v-56.51c0-1.63.72-2.23,2.67-2.23h28.85c13.75,0,22.17,6.7,22.17,18.29ZM1682.37,800.21h-20.63v21.04h20.63c8.1,0,12.73-3.78,12.73-10.48s-4.63-10.56-12.73-10.56Z"/>
            <path class="cls-2" d="M1791.54,794.71v3.26c0,1.63-.72,2.23-2.67,2.23h-19.4v51.02c0,1.63-.62,2.23-2.67,2.23h-4.52c-2.05,0-2.67-.6-2.67-2.23v-51.02h-19.4c-2.05,0-2.67-.6-2.67-2.23v-3.26c0-1.63.62-2.23,2.67-2.23h48.66c1.94,0,2.67.6,2.67,2.23Z"/>
            <path class="cls-2" d="M1829.88,792.48h4.52c2.05,0,2.77.6,2.77,2.23v56.51c0,1.63-.72,2.23-2.77,2.23h-4.52c-1.95,0-2.67-.6-2.67-2.23v-56.51c0-1.63.72-2.23,2.67-2.23Z"/>
            <path class="cls-2" d="M1903.65,791.19c14.27,0,21.87,4.38,26.9,13.14.92,1.55.41,2.32-1.44,3.01l-4.31,1.63c-1.85.69-2.56.42-3.49-1.12-3.49-5.67-8.32-8.68-17.66-8.68-11.19,0-17.14,3.35-17.14,9.71,0,7.65,9.44,8.94,19.71,9.88,12.22,1.21,25.77,3.44,25.77,17.36,0,11.34-9.96,18.64-28.43,18.64-15.4,0-23.51-4.98-28.03-14.69-.72-1.63-.2-2.32,1.75-2.92l4.21-1.29c1.85-.51,2.67-.25,3.49,1.38,3.28,6.35,9.34,9.71,18.58,9.71,12.11,0,18.47-3.35,18.47-10.65s-8.62-8.68-18.17-9.62c-12.63-1.12-27.51-2.83-27.51-17.27,0-10.73,9.54-18.2,27.3-18.2Z"/>
            <path class="cls-2" d="M1972.9,792.48h4.52c2.05,0,2.77.6,2.77,2.23v56.51c0,1.63-.72,2.23-2.77,2.23h-4.52c-1.95,0-2.67-.6-2.67-2.23v-56.51c0-1.63.72-2.23,2.67-2.23Z"/>
            <path class="cls-2" d="M2077.99,794.71v56.51c0,1.63-.72,2.23-2.67,2.23h-4.51c-1.33,0-2.06-.26-2.77-1.12l-29.26-35.64c-4.21-5.33-7.28-12.03-8.31-13.23h-.51c0,1.63,1.74,8.85,1.74,15.98v31.78c0,1.63-.72,2.23-2.77,2.23h-4.21c-1.95,0-2.67-.6-2.67-2.23v-56.51c0-1.63.72-2.23,2.67-2.23h4.52c1.43,0,2.15.42,2.67,1.12l28.84,35.04c4.72,5.85,7.6,12.28,8.83,13.74h.51c0-1.88-1.64-8.93-1.64-16.57v-31.09c0-1.63.62-2.23,2.67-2.23h4.21c1.95,0,2.67.6,2.67,2.23Z"/>
            <path class="cls-2" d="M2175.14,823.32v10.99c0,12.02-10.16,20.44-28.74,20.44s-28.74-8.42-28.74-21.99v-19.58c0-13.57,10.17-21.99,28.74-21.99,15.4,0,23.92,5.15,27.61,14.6.62,1.63.21,2.32-1.74,2.92l-4.21,1.21c-1.95.6-2.77.25-3.49-1.38-2.56-6.44-7.9-9.62-18.17-9.62-12.32,0-18.79,5.15-18.79,14.17v19.67c0,9.02,6.67,14.26,18.79,14.26s18.89-5.24,18.89-12.71v-5.59h-17.76c-2.06,0-2.67-.51-2.67-2.23v-3.26c0-1.63.62-2.23,2.67-2.23h24.84c2.05,0,2.77.6,2.77,2.32Z"/>
            <path class="cls-2" d="M2316.11,853.46h-4.01c-3.39,0-4.31-.43-4.92-1.97l-6.37-14h-30.38l-6.37,14c-.72,1.54-1.64,1.97-4.92,1.97h-3.59c-2.06,0-2.47-.77-1.85-2.23l26.69-57.03c.61-1.54,1.44-1.88,3.38-1.88h4.11c1.95,0,2.77.34,3.39,1.8l26.69,57.12c.61,1.46.2,2.23-1.85,2.23ZM2285.93,800.04h-.62c-.1.17-.1,4.04-1.74,7.99l-10.37,22.67h24.84l-10.26-22.58c-1.65-4.04-1.85-7.9-1.85-8.07Z"/>
            <path class="cls-2" d="M2407.01,823.32v10.99c0,12.02-10.16,20.44-28.74,20.44s-28.74-8.42-28.74-21.99v-19.58c0-13.57,10.17-21.99,28.74-21.99,15.4,0,23.92,5.15,27.61,14.6.62,1.63.21,2.32-1.74,2.92l-4.21,1.21c-1.95.6-2.77.25-3.49-1.38-2.56-6.44-7.9-9.62-18.17-9.62-12.32,0-18.79,5.15-18.79,14.17v19.67c0,9.02,6.67,14.26,18.79,14.26s18.89-5.24,18.89-12.71v-5.59h-17.76c-2.06,0-2.67-.51-2.67-2.23v-3.26c0-1.63.62-2.23,2.67-2.23h24.84c2.05,0,2.77.6,2.77,2.32Z"/>
            <path class="cls-2" d="M2492.47,794.71v3.26c0,1.63-.62,2.23-2.67,2.23h-33.97v18.47h29.25c2.06,0,2.67.6,2.67,2.32v3.18c0,1.71-.62,2.23-2.67,2.23h-29.25v19.32h35.21c2.05,0,2.67.6,2.67,2.23v3.26c0,1.63-.62,2.23-2.67,2.23h-42.5c-1.95,0-2.67-.6-2.67-2.23v-56.51c0-1.63.72-2.23,2.67-2.23h41.27c2.06,0,2.67.6,2.67,2.23Z"/>
            <path class="cls-2" d="M2587.58,794.71v56.51c0,1.63-.72,2.23-2.67,2.23h-4.51c-1.33,0-2.06-.26-2.77-1.12l-29.26-35.64c-4.21-5.33-7.28-12.03-8.31-13.23h-.51c0,1.63,1.74,8.85,1.74,15.98v31.78c0,1.63-.72,2.23-2.77,2.23h-4.21c-1.95,0-2.67-.6-2.67-2.23v-56.51c0-1.63.72-2.23,2.67-2.23h4.51c1.44,0,2.16.42,2.67,1.12l28.84,35.04c4.72,5.85,7.6,12.28,8.83,13.74h.51c0-1.88-1.64-8.93-1.64-16.57v-31.09c0-1.63.62-2.23,2.67-2.23h4.21c1.95,0,2.67.6,2.67,2.23Z"/>
            <path class="cls-2" d="M2655.99,791.19c15.4,0,23.92,5.15,27.61,14.6.62,1.63.21,2.32-1.74,2.92l-4.21,1.21c-1.95.51-2.77.25-3.49-1.38-2.56-6.44-7.9-9.62-18.17-9.62-12.22,0-18.79,5.15-18.79,14.17v19.75c0,8.94,6.67,14.17,18.79,14.17,10.47,0,15.71-3.35,18.27-9.79.72-1.72,1.54-2.06,3.49-1.46l4.21,1.29c1.95.51,2.47,1.28,1.74,2.92-3.69,9.44-12.11,14.77-27.72,14.77-18.47,0-28.74-8.42-28.74-21.99v-19.58c0-13.57,10.17-21.99,28.74-21.99Z"/>
            <path class="cls-2" d="M2776.25,794.71l-26.08,34.35v22.16c0,1.63-.62,2.23-2.67,2.23h-4.52c-2.05,0-2.67-.6-2.67-2.23v-22.33l-26.07-34.18c-.83-1.21-.51-2.23,1.44-2.23h5.54c3.08,0,4,.08,5.24,1.97l18.88,26.03,19.1-26.03c1.23-1.89,2.05-1.97,5.24-1.97h5.13c2.05,0,2.26,1.03,1.44,2.23Z"/>
          </g>
          <g>
            <path class="cls-1" d="M368.44,794.71v56.51c0,1.63-.72,2.23-2.67,2.23h-4.1c-2.06,0-2.67-.6-2.67-2.23v-31.01c0-4.8.62-10.13,1.85-16.14h-.51c-2.56,5.75-5.13,9.88-8.21,14.43l-13.04,19.41c-.83,1.2-1.54,1.63-3.19,1.63h-2.56c-1.65,0-2.26-.34-3.18-1.63l-13.24-19.58c-3.18-4.55-5.24-8.25-7.7-14.26h-.61c1.23,6.09,1.64,11.08,1.64,16.14v31.01c0,1.63-.62,2.23-2.67,2.23h-3.9c-1.95,0-2.67-.6-2.67-2.23v-56.51c0-1.63.72-2.23,2.67-2.23h3.59c2.26,0,2.88.34,3.8,1.71l23.61,35.14,23.51-35.05c.92-1.46,1.54-1.8,3.69-1.8h3.9c1.95,0,2.67.6,2.67,2.23Z"/>
            <path class="cls-1" d="M466.22,853.46h-4.01c-3.39,0-4.31-.43-4.92-1.97l-6.37-14h-30.38l-6.36,14c-.72,1.54-1.65,1.97-4.93,1.97h-3.59c-2.06,0-2.47-.77-1.85-2.23l26.69-57.03c.61-1.54,1.44-1.88,3.39-1.88h4.1c1.95,0,2.77.34,3.39,1.8l26.69,57.12c.61,1.46.2,2.23-1.85,2.23ZM436.03,800.04h-.62c-.1.17-.1,4.04-1.74,7.99l-10.37,22.67h24.84l-10.26-22.58c-1.65-4.04-1.85-7.9-1.85-8.07Z"/>
            <path class="cls-1" d="M557.21,810.77c0,9.27-5.65,15.29-15.08,17.09,2.26,1.03,3.69,2.66,5.13,4.8l11.39,18.47c.83,1.29.62,2.32-1.44,2.32h-4.51c-3.39,0-4.42-.34-5.34-1.97l-9.34-15.72c-2.97-5.07-5.95-6.79-13.55-6.79h-10.98v22.24c0,1.63-.72,2.23-2.78,2.23h-4.51c-1.95,0-2.67-.6-2.67-2.23v-56.51c0-1.63.72-2.23,2.67-2.23h28.85c13.75,0,22.17,6.7,22.17,18.29ZM534.12,800.21h-20.63v21.04h20.63c8.1,0,12.73-3.78,12.73-10.48s-4.63-10.56-12.73-10.56Z"/>
            <path class="cls-1" d="M648.93,853.46h-4.51c-3.28,0-4.42-.34-5.34-1.97l-10.88-18.38c-3.08-5.07-5.95-6.79-13.65-6.79h-8.01v24.91c0,1.63-.72,2.23-2.77,2.23h-4.52c-1.95,0-2.67-.6-2.67-2.23v-56.51c0-1.63.72-2.23,2.67-2.23h4.52c2.05,0,2.77.6,2.77,2.23v24.04h9.03l21.87-24.39c1.53-1.63,2.26-1.88,5.44-1.88h5.03c1.85,0,2.36,1.12,1.34,2.15l-23.72,25.77c5.34,1.55,8.83,4.73,11.81,9.71l13.04,21.04c.82,1.29.62,2.32-1.44,2.32Z"/>
            <path class="cls-1" d="M733.16,794.71v3.26c0,1.63-.61,2.23-2.67,2.23h-33.97v18.47h29.25c2.06,0,2.67.6,2.67,2.32v3.18c0,1.71-.62,2.23-2.67,2.23h-29.25v19.32h35.21c2.05,0,2.67.6,2.67,2.23v3.26c0,1.63-.62,2.23-2.67,2.23h-42.5c-1.95,0-2.67-.6-2.67-2.23v-56.51c0-1.63.72-2.23,2.67-2.23h41.27c2.06,0,2.67.6,2.67,2.23Z"/>
            <path class="cls-1" d="M820.16,794.71v3.26c0,1.63-.72,2.23-2.67,2.23h-19.4v51.02c0,1.63-.62,2.23-2.67,2.23h-4.52c-2.05,0-2.67-.6-2.67-2.23v-51.02h-19.4c-2.05,0-2.67-.6-2.67-2.23v-3.26c0-1.63.62-2.23,2.67-2.23h48.66c1.94,0,2.67.6,2.67,2.23Z"/>
            <path class="cls-1" d="M858.5,792.48h4.51c2.06,0,2.78.6,2.78,2.23v56.51c0,1.63-.72,2.23-2.78,2.23h-4.51c-1.95,0-2.67-.6-2.67-2.23v-56.51c0-1.63.72-2.23,2.67-2.23Z"/>
            <path class="cls-1" d="M963.6,794.71v56.51c0,1.63-.72,2.23-2.67,2.23h-4.51c-1.33,0-2.06-.26-2.77-1.12l-29.26-35.64c-4.21-5.33-7.28-12.03-8.31-13.23h-.51c0,1.63,1.74,8.85,1.74,15.98v31.78c0,1.63-.72,2.23-2.77,2.23h-4.21c-1.95,0-2.67-.6-2.67-2.23v-56.51c0-1.63.72-2.23,2.67-2.23h4.51c1.44,0,2.16.42,2.67,1.12l28.84,35.04c4.72,5.85,7.6,12.28,8.83,13.74h.51c0-1.88-1.64-8.93-1.64-16.57v-31.09c0-1.63.62-2.23,2.67-2.23h4.21c1.95,0,2.67.6,2.67,2.23Z"/>
            <path class="cls-1" d="M1060.75,823.32v10.99c0,12.02-10.16,20.44-28.74,20.44s-28.74-8.42-28.74-21.99v-19.58c0-13.57,10.17-21.99,28.74-21.99,15.4,0,23.92,5.15,27.61,14.6.62,1.63.21,2.32-1.74,2.92l-4.21,1.21c-1.95.6-2.77.25-3.49-1.38-2.56-6.44-7.9-9.62-18.17-9.62-12.32,0-18.79,5.15-18.79,14.17v19.67c0,9.02,6.67,14.26,18.79,14.26s18.89-5.24,18.89-12.71v-5.59h-17.76c-2.06,0-2.67-.51-2.67-2.23v-3.26c0-1.63.62-2.23,2.67-2.23h24.84c2.05,0,2.77.6,2.77,2.32Z"/>
            <path class="cls-1" d="M1170.51,791.19c10.58,0,18.58,6.61,18.58,14.69s-4.93,12.02-15.09,15.89l-1.03.43,15.81,13.14,6.78-5.5c1.03-.95,2.15-.95,3.28,0l3.08,2.66c.92.86,1.03,1.46-.2,2.41l-6.98,5.76,12.72,10.73c1.34,1.29,1.13,2.06-1.12,2.06h-5.75c-1.74,0-2.57-.26-3.69-1.29l-8.11-6.7c-9.85,7.64-15.5,9.27-23.1,9.27-12.11,0-21.04-7.3-21.04-17.52,0-8.94,6.67-13.74,14.68-17.09-4.42-3.87-8.01-8.25-8.01-13.74,0-7.9,6.88-15.2,19.2-15.2ZM1153.98,837.4c0,5.75,5.34,10.05,12.22,10.05,5.85,0,9.96-2.23,16.63-7.39l-17.56-14.6c-7.49,2.83-11.29,6.35-11.29,11.94ZM1170.51,797.98c-6.57,0-10.47,4.04-10.47,8.5,0,4.04,2.67,6.79,7.08,10.48l3.08-1.29c6.16-2.41,10.26-4.38,10.26-9.71,0-4.29-4.21-7.99-9.96-7.99Z"/>
            <path class="cls-1" d="M1345.05,853.46h-4.01c-3.39,0-4.31-.43-4.92-1.97l-6.37-14h-30.38l-6.36,14c-.72,1.54-1.65,1.97-4.93,1.97h-3.59c-2.06,0-2.47-.77-1.85-2.23l26.69-57.03c.61-1.54,1.44-1.88,3.39-1.88h4.1c1.95,0,2.77.34,3.39,1.8l26.69,57.12c.61,1.46.2,2.23-1.85,2.23ZM1314.86,800.04h-.62c-.1.17-.1,4.04-1.74,7.99l-10.37,22.67h24.84l-10.26-22.58c-1.65-4.04-1.85-7.9-1.85-8.07Z"/>
            <path class="cls-1" d="M1437.17,815.15v15.63c0,14-10.67,22.67-29.77,22.67h-22.38c-1.95,0-2.67-.6-2.67-2.23v-56.51c0-1.63.72-2.23,2.67-2.23h22.38c19.1,0,29.77,8.67,29.77,22.67ZM1407.4,800.21h-15.08v45.52h15.08c12.73,0,19.81-5.41,19.81-14.86v-15.8c0-9.45-6.98-14.86-19.81-14.86Z"/>
            <path class="cls-1" d="M1530.54,794.71l-25.67,56.86c-.61,1.55-1.43,1.89-3.28,1.89h-4.22c-1.85,0-2.77-.34-3.38-1.8l-25.67-56.95c-.61-1.46-.1-2.23,1.85-2.23h4.01c3.28,0,4.21.42,4.83,1.97l17.86,41.23c1.33,3.35,2.26,7.39,2.56,7.9h.41c.31-.51,1.13-4.47,2.57-7.81l17.65-41.32c.62-1.55,1.54-1.97,4.93-1.97h3.8c1.94,0,2.46.77,1.74,2.23Z"/>
            <path class="cls-1" d="M1612.61,794.71v3.26c0,1.63-.62,2.23-2.67,2.23h-33.97v18.47h29.25c2.06,0,2.67.6,2.67,2.32v3.18c0,1.71-.62,2.23-2.67,2.23h-29.25v19.32h35.21c2.05,0,2.67.6,2.67,2.23v3.26c0,1.63-.62,2.23-2.67,2.23h-42.5c-1.95,0-2.67-.6-2.67-2.23v-56.51c0-1.63.72-2.23,2.67-2.23h41.27c2.06,0,2.67.6,2.67,2.23Z"/>
            <path class="cls-1" d="M1705.46,810.77c0,9.27-5.65,15.29-15.08,17.09,2.26,1.03,3.69,2.66,5.13,4.8l11.39,18.47c.83,1.29.62,2.32-1.44,2.32h-4.51c-3.39,0-4.42-.34-5.34-1.97l-9.34-15.72c-2.97-5.07-5.95-6.79-13.55-6.79h-10.98v22.24c0,1.63-.72,2.23-2.78,2.23h-4.51c-1.95,0-2.67-.6-2.67-2.23v-56.51c0-1.63.72-2.23,2.67-2.23h28.85c13.75,0,22.17,6.7,22.17,18.29ZM1682.37,800.21h-20.63v21.04h20.63c8.1,0,12.73-3.78,12.73-10.48s-4.63-10.56-12.73-10.56Z"/>
            <path class="cls-1" d="M1791.54,794.71v3.26c0,1.63-.72,2.23-2.67,2.23h-19.4v51.02c0,1.63-.62,2.23-2.67,2.23h-4.52c-2.05,0-2.67-.6-2.67-2.23v-51.02h-19.4c-2.05,0-2.67-.6-2.67-2.23v-3.26c0-1.63.62-2.23,2.67-2.23h48.66c1.94,0,2.67.6,2.67,2.23Z"/>
            <path class="cls-1" d="M1829.88,792.48h4.52c2.05,0,2.77.6,2.77,2.23v56.51c0,1.63-.72,2.23-2.77,2.23h-4.52c-1.95,0-2.67-.6-2.67-2.23v-56.51c0-1.63.72-2.23,2.67-2.23Z"/>
            <path class="cls-1" d="M1903.65,791.19c14.27,0,21.87,4.38,26.9,13.14.92,1.55.41,2.32-1.44,3.01l-4.31,1.63c-1.85.69-2.56.42-3.49-1.12-3.49-5.67-8.32-8.68-17.66-8.68-11.19,0-17.14,3.35-17.14,9.71,0,7.65,9.44,8.94,19.71,9.88,12.22,1.21,25.77,3.44,25.77,17.36,0,11.34-9.96,18.64-28.43,18.64-15.4,0-23.51-4.98-28.03-14.69-.72-1.63-.2-2.32,1.75-2.92l4.21-1.29c1.85-.51,2.67-.25,3.49,1.38,3.28,6.35,9.34,9.71,18.58,9.71,12.11,0,18.47-3.35,18.47-10.65s-8.62-8.68-18.17-9.62c-12.63-1.12-27.51-2.83-27.51-17.27,0-10.73,9.54-18.2,27.3-18.2Z"/>
            <path class="cls-1" d="M1972.9,792.48h4.52c2.05,0,2.77.6,2.77,2.23v56.51c0,1.63-.72,2.23-2.77,2.23h-4.52c-1.95,0-2.67-.6-2.67-2.23v-56.51c0-1.63.72-2.23,2.67-2.23Z"/>
            <path class="cls-1" d="M2077.99,794.71v56.51c0,1.63-.72,2.23-2.67,2.23h-4.51c-1.33,0-2.06-.26-2.77-1.12l-29.26-35.64c-4.21-5.33-7.28-12.03-8.31-13.23h-.51c0,1.63,1.74,8.85,1.74,15.98v31.78c0,1.63-.72,2.23-2.77,2.23h-4.21c-1.95,0-2.67-.6-2.67-2.23v-56.51c0-1.63.72-2.23,2.67-2.23h4.52c1.43,0,2.15.42,2.67,1.12l28.84,35.04c4.72,5.85,7.6,12.28,8.83,13.74h.51c0-1.88-1.64-8.93-1.64-16.57v-31.09c0-1.63.62-2.23,2.67-2.23h4.21c1.95,0,2.67.6,2.67,2.23Z"/>
            <path class="cls-1" d="M2175.14,823.32v10.99c0,12.02-10.16,20.44-28.74,20.44s-28.74-8.42-28.74-21.99v-19.58c0-13.57,10.17-21.99,28.74-21.99,15.4,0,23.92,5.15,27.61,14.6.62,1.63.21,2.32-1.74,2.92l-4.21,1.21c-1.95.6-2.77.25-3.49-1.38-2.56-6.44-7.9-9.62-18.17-9.62-12.32,0-18.79,5.15-18.79,14.17v19.67c0,9.02,6.67,14.26,18.79,14.26s18.89-5.24,18.89-12.71v-5.59h-17.76c-2.06,0-2.67-.51-2.67-2.23v-3.26c0-1.63.62-2.23,2.67-2.23h24.84c2.05,0,2.77.6,2.77,2.32Z"/>
            <path class="cls-1" d="M2316.11,853.46h-4.01c-3.39,0-4.31-.43-4.92-1.97l-6.37-14h-30.38l-6.37,14c-.72,1.54-1.64,1.97-4.92,1.97h-3.59c-2.06,0-2.47-.77-1.85-2.23l26.69-57.03c.61-1.54,1.44-1.88,3.38-1.88h4.11c1.95,0,2.77.34,3.39,1.8l26.69,57.12c.61,1.46.2,2.23-1.85,2.23ZM2285.93,800.04h-.62c-.1.17-.1,4.04-1.74,7.99l-10.37,22.67h24.84l-10.26-22.58c-1.65-4.04-1.85-7.9-1.85-8.07Z"/>
            <path class="cls-1" d="M2407.01,823.32v10.99c0,12.02-10.16,20.44-28.74,20.44s-28.74-8.42-28.74-21.99v-19.58c0-13.57,10.17-21.99,28.74-21.99,15.4,0,23.92,5.15,27.61,14.6.62,1.63.21,2.32-1.74,2.92l-4.21,1.21c-1.95.6-2.77.25-3.49-1.38-2.56-6.44-7.9-9.62-18.17-9.62-12.32,0-18.79,5.15-18.79,14.17v19.67c0,9.02,6.67,14.26,18.79,14.26s18.89-5.24,18.89-12.71v-5.59h-17.76c-2.06,0-2.67-.51-2.67-2.23v-3.26c0-1.63.62-2.23,2.67-2.23h24.84c2.05,0,2.77.6,2.77,2.32Z"/>
            <path class="cls-1" d="M2492.47,794.71v3.26c0,1.63-.62,2.23-2.67,2.23h-33.97v18.47h29.25c2.06,0,2.67.6,2.67,2.32v3.18c0,1.71-.62,2.23-2.67,2.23h-29.25v19.32h35.21c2.05,0,2.67.6,2.67,2.23v3.26c0,1.63-.62,2.23-2.67,2.23h-42.5c-1.95,0-2.67-.6-2.67-2.23v-56.51c0-1.63.72-2.23,2.67-2.23h41.27c2.06,0,2.67.6,2.67,2.23Z"/>
            <path class="cls-1" d="M2587.58,794.71v56.51c0,1.63-.72,2.23-2.67,2.23h-4.51c-1.33,0-2.06-.26-2.77-1.12l-29.26-35.64c-4.21-5.33-7.28-12.03-8.31-13.23h-.51c0,1.63,1.74,8.85,1.74,15.98v31.78c0,1.63-.72,2.23-2.77,2.23h-4.21c-1.95,0-2.67-.6-2.67-2.23v-56.51c0-1.63.72-2.23,2.67-2.23h4.51c1.44,0,2.16.42,2.67,1.12l28.84,35.04c4.72,5.85,7.6,12.28,8.83,13.74h.51c0-1.88-1.64-8.93-1.64-16.57v-31.09c0-1.63.62-2.23,2.67-2.23h4.21c1.95,0,2.67.6,2.67,2.23Z"/>
            <path class="cls-1" d="M2655.99,791.19c15.4,0,23.92,5.15,27.61,14.6.62,1.63.21,2.32-1.74,2.92l-4.21,1.21c-1.95.51-2.77.25-3.49-1.38-2.56-6.44-7.9-9.62-18.17-9.62-12.22,0-18.79,5.15-18.79,14.17v19.75c0,8.94,6.67,14.17,18.79,14.17,10.47,0,15.71-3.35,18.27-9.79.72-1.72,1.54-2.06,3.49-1.46l4.21,1.29c1.95.51,2.47,1.28,1.74,2.92-3.69,9.44-12.11,14.77-27.72,14.77-18.47,0-28.74-8.42-28.74-21.99v-19.58c0-13.57,10.17-21.99,28.74-21.99Z"/>
            <path class="cls-1" d="M2776.25,794.71l-26.08,34.35v22.16c0,1.63-.62,2.23-2.67,2.23h-4.52c-2.05,0-2.67-.6-2.67-2.23v-22.33l-26.07-34.18c-.83-1.21-.51-2.23,1.44-2.23h5.54c3.08,0,4,.08,5.24,1.97l18.88,26.03,19.1-26.03c1.23-1.89,2.05-1.97,5.24-1.97h5.13c2.05,0,2.26,1.03,1.44,2.23Z"/>
          </g>
        </g>
        <g>
          <path class="cls-1" d="M1128.35,420.9v8.2c0,4.39-1.47,5.85-5.86,5.85h-59.15v182.14c0,4.39-1.46,5.85-5.85,5.85h-9.66c-4.39,0-5.86-1.47-5.86-5.85v-182.14h-59.15c-4.39,0-5.85-1.46-5.85-5.85v-8.2c0-4.39,1.47-5.85,5.85-5.85h139.68c4.39,0,5.86,1.47,5.86,5.85Z"/>
          <path class="cls-1" d="M1220.34,410.95c52.12,0,80.23,27.81,80.23,73.5v69.11c0,45.68-28.11,73.5-80.23,73.5s-80.53-27.81-80.53-73.5v-69.11c0-45.68,28.11-73.5,80.53-73.5ZM1220.34,430.57c-38.65,0-59.45,19.91-59.45,53.88v69.11c0,33.97,20.8,53.88,59.45,53.88s59.15-19.91,59.15-53.88v-69.11c0-33.97-20.79-53.88-59.15-53.88Z"/>
          <path class="cls-1" d="M1411.3,607.43c38.65,0,57.39-21.08,57.39-55.05v-131.48c0-4.39,1.46-5.85,5.85-5.85h9.66c4.39,0,5.86,1.47,5.86,5.85v131.19c0,45.68-26.36,75.26-78.77,75.26s-78.78-29.58-78.78-75.26v-131.19c0-4.39,1.47-5.85,5.86-5.85h9.66c4.39,0,5.85,1.47,5.85,5.85v131.48c0,33.97,18.74,55.05,57.4,55.05Z"/>
          <path class="cls-1" d="M1602.26,410.95c44.8,0,67.65,17.56,77.9,50.07,1.46,4.39.58,6.15-3.52,7.61l-9.08,3.23c-4.1,1.17-5.85.58-7.61-3.52-7.9-25.47-24.01-37.77-57.69-37.77-38.65,0-58.85,19.91-58.85,53.59v69.69c0,33.39,20.5,53.59,58.85,53.59,34.55,0,50.37-13.18,58.28-38.65,1.75-4.1,3.51-4.98,7.61-3.81l9.07,3.52c3.81,1.46,4.98,3.22,3.52,7.32-10.25,32.8-32.8,51.24-78.48,51.24-51.54,0-80.23-27.81-80.23-73.5v-69.11c0-45.68,27.81-73.5,80.23-73.5Z"/>
          <path class="cls-1" d="M1862.34,420.9v196.2c0,4.39-1.46,5.85-5.56,5.85h-9.67c-4.39,0-5.85-1.47-5.85-5.85v-89.61h-111.57v89.61c0,4.39-1.17,5.85-5.56,5.85h-9.66c-4.39,0-5.86-1.47-5.86-5.85v-196.2c0-4.39,1.47-5.85,5.86-5.85h9.66c4.39,0,5.56,1.47,5.56,5.85v86.68h111.57v-86.68c0-4.39,1.46-5.85,5.85-5.85h9.67c4.1,0,5.56,1.47,5.56,5.85Z"/>
        </g>
        <g>
          <path class="cls-1" d="M2123.71,425v187.99c0,7.32-2.35,9.96-9.96,9.96h-14.93c-7.61,0-9.96-2.64-9.96-9.96v-89.31c0-16.69,2.06-35.72,7.03-58.27h-2.05c-7.32,21.96-14.64,36.6-24.01,53.59l-28.7,50.66c-3.22,5.27-5.56,7.03-11.42,7.03h-9.37c-6.15,0-8.19-1.18-11.42-7.03l-29.28-50.95c-9.96-16.98-15.52-29.87-22.55-53.3h-2.05c4.69,22.84,6.15,40.12,6.15,58.56v89.02c0,7.32-2.34,9.96-9.96,9.96h-14.05c-7.62,0-10.25-2.64-10.25-9.96v-187.99c0-7.32,2.63-9.96,10.25-9.96h12.88c8.2,0,10.84,1.47,14.06,7.61l60.91,108.93,60.91-108.63c3.52-6.44,5.56-7.91,13.47-7.91h14.35c7.61,0,9.96,2.64,9.96,9.96Z"/>
          <path class="cls-1" d="M2301.21,425v14.35c0,7.32-2.63,9.96-10.24,9.96h-89.61v51.24h75.84c7.32,0,9.96,2.64,9.96,9.96v14.35c0,7.32-2.64,9.96-9.96,9.96h-75.84v53.88h92.83c7.61,0,9.96,2.64,9.96,9.96v14.35c0,7.32-2.35,9.96-9.96,9.96h-119.47c-7.62,0-10.25-2.64-10.25-9.96v-187.99c0-7.32,2.63-9.96,10.25-9.96h116.25c7.61,0,10.24,2.64,10.24,9.96Z"/>
          <path class="cls-1" d="M2494.81,492.36v53.3c0,47.72-30.45,77.3-84.92,77.3h-65.59c-7.61,0-10.24-2.64-10.24-9.96v-187.99c0-7.32,2.63-9.96,10.24-9.96h65.59c54.47,0,84.92,29.58,84.92,77.31ZM2410.19,449.31h-39.24v139.38h39.24c30.75,0,48.02-14.93,48.02-42.75v-53.88c0-27.81-17.27-42.75-48.02-42.75Z"/>
          <path class="cls-1" d="M2539.36,415.05h16.69c7.32,0,9.96,2.64,9.96,9.96v187.99c0,7.32-2.64,9.96-9.96,9.96h-16.69c-7.61,0-10.24-2.64-10.24-9.96v-187.99c0-7.32,2.63-9.96,10.24-9.96Z"/>
          <path class="cls-1" d="M2768.96,622.95h-15.23c-12.3,0-15.81-1.76-18.16-8.78l-13.47-37.78h-80.82l-13.77,37.78c-2.34,7.02-5.85,8.78-18.15,8.78h-13.47c-7.31,0-9.07-3.22-6.73-9.66l73.21-190.34c2.64-6.74,5.56-8.2,12.3-8.2h15.52c6.73,0,9.96,1.46,12.3,7.9l73.21,190.63c2.35,6.44.59,9.66-6.73,9.66ZM2682.58,448.72h-2.05c0,.29-.3,17.57-6.44,35.43l-22.55,62.08h60.32l-22.26-61.79c-6.15-18.15-6.73-35.43-7.02-35.72Z"/>
        </g>
      </g>
      <g>
        <path class="cls-3" d="M378.85,169.15c4.65-9.73,11.14-25.36,16.61-34.49,2.17-3.61,4.24-3.69,16.2-3.69,51.75,0,131.83-.83,180,4.49,8.05.89,15.18.61,23.25,1.48,28.65,3.09,59.7,5.15,88.53,8.7,27.39,3.38,55.19,6.51,79.73,16.07,5.64,2.2,11.24,4.47,16.66,6.99,5.94,2.76,11.19,7.92,17.82,7.92,8.93,0,17.54-10.68-5.21-23.23-30.57-16.86-138.67-32.99-173.54-36.52-18.68-1.89-36.5-3.68-55.42-5.01l-143.45-9.38c-13.83-.9-21.07-1.59-21.6-7.73l4.56-8.24c7.62-12.94,26.18-40.47,26.18-54.19,0-17.13-21.06-32.34-40.94-32.34s-29.48,5.19-38.91,18.82c-9.65,13.94-23.55,58.14-25.79,63.76-1.86,4.68-4.33,10.47-7.07,16.75-3.41-.29-6.14-.73-11.2-.71l-53.48-.93c-17.88,0-73.98-1.38-89.18.55-9.69,1.23-22.58.06-31.67,1.1l-31.53,1.21c-10.12-.07-22.13,1.7-31.83,1.91-17.34.37-42.15,1.62-57.55,7.03-11.91,4.18-30.02,17.74-30.02,31.01v.58c.08,12.05,2.53,21.07,12.77,29.64,15.77,13.19,39.82,16.27,57.44,3.78,16.64-11.79-5.04-11.02,38.97-20.67,44.6-9.79,90.4-17.13,137.6-17.13,29.92,0,56.86,20.85,56.86,45.65,0,20.6-9.66,36.03-15.92,55.16-2.55,7.79-5.89,15.18-8.62,23.23l-25.63,71.77c-16.68,47.94-33.62,95.45-48.76,143.72-18.73,59.72-45.35,136.29-60.76,195.51l-14.53,49.67c-4.87,16.27-8.96,33.1-14.1,50.03-8.94,29.41-34.09,128.18-38.64,153.14-3.26,17.84-7.3,36-7.3,55.71,0,26.38,5.02,79.89,45.49,79.89h.43c9.18-.07,18.83-2.41,24.91-7.34,6.92-5.6,9.91-11.2,9.91-20.24,0-8.28-8.35-14.54-13.92-18.79-8.06-6.16-8.31-6.46-13.26-19.35-17.96-46.79-7.18-110.53,2.15-157.79,5.3-26.86,12.86-54.75,20.49-80.82,26.05-88.97,52.48-166.46,87.12-253.35,6.37-15.97,12.42-32.76,19.76-48.14l30.55-72.41c3.15-8,7.19-16.07,10.24-23.77,12.57-31.67,28.57-63.88,42.08-95.1l43.51-93.91Z"/>
        <path class="cls-3" d="M1100.92,711.61c-13.29-4.59-25.36-10.72-36.21-18.05-2.62-1.77-5.64-2.76-8.8-2.76h-80.54c-23.91-2.11-47.99-15.93-56.7-33.42-9.91-19.92-14.66-40.69-14.66-74s6.42-63.78,9.47-90.89c2.66-23.57,4.27-54.42-1.29-81.75-5.75-28.27-24.68-51.77-54.89-60.61-23.75-6.96-48.15-6.2-73.73,13.61-38.86,23.51-132.76,131.49-132.76,131.49,1.07-3.84,2.64-7.66,4.06-11.82l30.8-85.52c8.98-12.57,27.98-108.01,28.67-112.98,3.82-27.18,3.82-45.68-10.55-63.2-12.83-15.64-34.74-17.59-56.56-10.98-6.87,2.08-21.99,10-35.26,21.1-10.62,8.88-28.09,28.61-47.26,65.85l-15.43,31.79c-2.64,5.56-5.15,9.95-7.8,15.36-1.25,2.56-2.47,4.33-4.02,7.1l-11.91,23.33c-12.43,26.01-25.4,54.59-39.26,79.4l-34.12,59.91c-1.28,2.14-32.98,54.68-37.9,57.7l13.88-39.75c6.67-20.33,20.44-61.76,28.53-78.85,12.33-26.05,35.49-96.2,39.16-121.33,2.57-17.65,2.08-31.31-4.87-44.86-14.08-27.46-61.89-23.74-71.08,6.08-1.76,5.7-1.92,17.13-2.99,23.18-6.4,36.05-35.33,99.18-50.54,137.49-5.03,12.67-10.54,25.21-15.12,38.71-5.93,17.47-8.52,20.12-13.86,39.77-3.91,14.43-9.44,25.25-13.86,39.76-8.25,27.09-17.79,56.05-12.96,88.43,2.09,14.01,5.54,25.72,21.44,33.43,13.39,6.5,34.06,8.48,49.3,2.55,24.41-9.49,47.6-59.88,58.74-79.27,21.4-37.27,62.15-124.87,80.64-163.67l56.97-106.43c7.75-13.01,23.82-38.52,41.87-49.55,6.16-3.77,14.53,1.16,12.4,7.29l-.04.12c-1.7,4.86-2.75,8.45-4.27,13.54-19.01,63.75-69.33,190.44-64.32,246.67,2.4,26.93,37.49,38.43,53.89,20.42l18.55-17.78c11.35-10.64,32.62-35.6,43.06-48.63,1.74-2.18,20.61-22.64,35.1-38.31,11.81-12.77,24.72-24.79,38.61-36,11.05-8.91,23.17-18.41,29.22-22.21,6.98-4.38,16.28-11.6,25.23-12.19,21.83-1.43,21.27,18.84,22.88,27.84,2.67,14.9,5.76,139.9,8.26,153.83,3.55,19.67.12,18.33,7.93,44.73,5.02,16.96,18.15,34.91,27,46.01,10.83,13.59,35.4,29.6,66.37,33.3,6.69.8,76.41,1.24,180.86,1.45-6.45-2.09-12.9-4.21-19.35-6.44Z"/>
      </g>
    </g>
  </g>
</svg>