<?xml version="1.0" encoding="UTF-8"?>
<svg id="Layer_1" data-name="Layer 1" xmlns="http://www.w3.org/2000/svg" viewBox="0 0 512 512">
  <defs>
    <style>
      .cls-1 {
        fill: #ffd100;
        fill-rule: evenodd;
      }

      .cls-2 {
        fill: #232263;
      }
    </style>
  </defs>
  <rect class="cls-2" x="0" y="0" width="512" height="512" rx="256" ry="256"/>
  <g>
    <path class="cls-1" d="M245.79,131.26c1.54-3.23,3.7-8.42,5.51-11.45.72-1.2,1.41-1.22,5.38-1.22,17.18,0,43.76-.27,59.75,1.49,2.67.3,5.04.2,7.72.49,9.51,1.02,19.82,1.71,29.39,2.89,9.09,1.12,18.32,2.16,26.46,5.33,1.87.73,3.73,1.48,5.53,2.32,1.97.91,3.71,2.63,5.92,2.63,2.96,0,5.82-3.55-1.73-7.71-10.15-5.6-46.03-10.95-57.6-12.12-6.2-.63-12.12-1.22-18.4-1.66l-47.62-3.11c-4.59-.3-6.99-.53-7.17-2.57l1.51-2.73c2.53-4.29,8.69-13.43,8.69-17.99,0-5.69-6.99-10.73-13.59-10.73s-9.79,1.72-12.91,6.25c-3.2,4.63-7.82,19.3-8.56,21.17-.62,1.55-1.44,3.48-2.35,5.56-1.13-.1-2.04-.24-3.72-.24l-17.75-.31c-5.94,0-24.56-.46-29.6.18-3.22.41-7.49.02-10.51.36l-10.47.4c-3.36-.02-7.34.56-10.57.63-5.76.12-13.99.54-19.1,2.33-3.95,1.39-9.97,5.89-9.97,10.29v.19c.03,4,.84,6.99,4.24,9.84,5.24,4.38,13.22,5.4,19.07,1.25,5.52-3.91-1.67-3.66,12.93-6.86,14.81-3.25,30.01-5.69,45.67-5.69,9.93,0,18.87,6.92,18.87,15.15,0,6.84-3.21,11.96-5.28,18.31-.85,2.58-1.95,5.04-2.86,7.71l-8.51,23.82c-5.54,15.91-11.16,31.68-16.19,47.71-6.22,19.82-15.05,45.24-20.17,64.9l-4.82,16.49c-1.62,5.4-2.97,10.99-4.68,16.61-2.97,9.76-11.31,42.55-12.83,50.83-1.08,5.92-2.42,11.95-2.42,18.49,0,8.76,1.67,26.52,15.1,26.52h.14c3.05-.02,6.25-.8,8.27-2.44,2.3-1.86,3.29-3.72,3.29-6.72,0-2.75-2.77-4.83-4.62-6.24-2.68-2.05-2.76-2.14-4.4-6.42-5.96-15.53-2.38-36.69.71-52.37,1.76-8.91,4.27-18.17,6.8-26.83,8.65-29.53,17.42-55.25,28.92-84.1,2.11-5.3,4.12-10.87,6.56-15.98l10.14-24.03c1.05-2.66,2.39-5.33,3.4-7.89,4.17-10.51,9.48-21.2,13.97-31.57l14.44-31.17Z"/>
    <path class="cls-1" d="M485.47,311.32c-4.41-1.52-8.42-3.56-12.02-5.99-.87-.59-1.87-.92-2.92-.92h-26.73c-7.94-.7-15.93-5.29-18.82-11.09-3.29-6.61-4.86-13.51-4.86-24.56s2.13-21.17,3.14-30.17c.88-7.82,1.42-18.06-.43-27.13-1.91-9.38-8.19-17.18-18.22-20.12-7.88-2.31-15.98-2.06-24.47,4.52-12.9,7.8-44.07,43.65-44.07,43.65.35-1.27.88-2.54,1.35-3.92l10.22-28.39c2.98-4.17,9.29-35.85,9.52-37.5,1.27-9.02,1.27-15.16-3.5-20.98-4.26-5.19-11.53-5.84-18.77-3.65-2.28.69-7.3,3.32-11.7,7.01-3.53,2.95-9.32,9.5-15.69,21.86l-5.12,10.55c-.88,1.85-1.71,3.3-2.59,5.1-.42.85-.82,1.44-1.33,2.36l-3.95,7.74c-4.13,8.63-8.43,18.12-13.03,26.35l-11.33,19.89c-.42.71-10.95,18.15-12.58,19.15l4.61-13.19c2.21-6.75,6.79-20.5,9.47-26.17,4.09-8.65,11.78-31.93,13-40.27.85-5.86.69-10.39-1.62-14.89-4.67-9.11-20.54-7.88-23.59,2.02-.58,1.89-.64,5.69-.99,7.69-2.12,11.97-11.73,32.92-16.77,45.64-1.67,4.21-3.5,8.37-5.02,12.85-1.97,5.8-2.83,6.68-4.6,13.2-1.3,4.79-3.13,8.38-4.6,13.2-2.74,8.99-5.9,18.6-4.3,29.35.69,4.65,1.84,8.54,7.12,11.09,4.45,2.16,11.31,2.81,16.36.85,8.1-3.15,15.8-19.88,19.5-26.31,7.1-12.37,20.63-41.45,26.77-54.33l18.91-35.33c2.57-4.32,7.91-12.79,13.9-16.45,2.04-1.25,4.82.39,4.12,2.42v.04c-.58,1.61-.93,2.81-1.43,4.5-6.31,21.16-23.01,63.21-21.35,81.88.8,8.94,12.44,12.76,17.89,6.78l6.16-5.9c3.77-3.53,10.83-11.82,14.29-16.14.58-.72,6.84-7.51,11.65-12.72,3.92-4.24,8.2-8.23,12.82-11.95,3.67-2.96,7.69-6.11,9.7-7.37,2.32-1.45,5.4-3.85,8.37-4.04,7.24-.47,7.06,6.26,7.59,9.24.89,4.95,1.91,46.44,2.74,51.06,1.18,6.53.04,6.09,2.63,14.85,1.67,5.63,6.03,11.59,8.96,15.27,3.6,4.51,11.75,9.83,22.03,11.05,2.22.27,25.36.41,60.03.48-2.14-.69-4.28-1.4-6.42-2.14Z"/>
  </g>
</svg>